<svg width="36" height="36" viewBox="0 0 36 36" fill="none" xmlns="http://www.w3.org/2000/svg">
<circle cx="18" cy="18" r="18" fill="url(#paint0_linear_80_161)"/>
<circle cx="18" cy="18" r="18" fill="url(#paint1_radial_80_161)"/>
<path d="M18.0019 13.7272C15.6371 13.7272 13.7297 15.635 13.7297 18.0003C13.7297 20.3656 15.6371 22.2734 18.0019 22.2734C20.3666 22.2734 22.274 20.3656 22.274 18.0003C22.274 15.635 20.3666 13.7272 18.0019 13.7272ZM18.0019 20.7784C16.4737 20.7784 15.2244 19.5326 15.2244 18.0003C15.2244 16.4681 16.47 15.2222 18.0019 15.2222C19.5338 15.2222 20.7793 16.4681 20.7793 18.0003C20.7793 19.5326 19.53 20.7784 18.0019 20.7784ZM23.4453 13.5524C23.4453 14.1065 22.9991 14.5491 22.4488 14.5491C21.8948 14.5491 21.4523 14.1028 21.4523 13.5524C21.4523 13.002 21.8985 12.5557 22.4488 12.5557C22.9991 12.5557 23.4453 13.002 23.4453 13.5524ZM26.2748 14.564C26.2116 13.2289 25.9067 12.0462 24.9288 11.0718C23.9547 10.0975 22.7723 9.79251 21.4375 9.72557C20.0617 9.64747 15.9383 9.64747 14.5626 9.72557C13.2315 9.78879 12.0491 10.0937 11.0712 11.0681C10.0933 12.0425 9.79218 13.2251 9.72525 14.5603C9.64717 15.9363 9.64717 20.0606 9.72525 21.4367C9.78846 22.7718 10.0933 23.9544 11.0712 24.9288C12.0491 25.9032 13.2278 26.2081 14.5626 26.2751C15.9383 26.3532 20.0617 26.3532 21.4375 26.2751C22.7723 26.2119 23.9547 25.9069 24.9288 24.9288C25.903 23.9544 26.2079 22.7718 26.2748 21.4367C26.3529 20.0606 26.3529 15.94 26.2748 14.564ZM24.4975 22.9131C24.2075 23.642 23.6461 24.2036 22.9136 24.4974C21.8167 24.9325 19.214 24.8321 18.0019 24.8321C16.7898 24.8321 14.1833 24.9288 13.0902 24.4974C12.3614 24.2073 11.8 23.6458 11.5062 22.9131C11.0712 21.816 11.1716 19.2127 11.1716 18.0003C11.1716 16.7879 11.0749 14.1809 11.5062 13.0875C11.7963 12.3586 12.3577 11.797 13.0902 11.5032C14.187 11.0681 16.7898 11.1685 18.0019 11.1685C19.214 11.1685 21.8204 11.0718 22.9136 11.5032C23.6423 11.7933 24.2038 12.3549 24.4975 13.0875C24.9325 14.1846 24.8321 16.7879 24.8321 18.0003C24.8321 19.2127 24.9325 21.8197 24.4975 22.9131Z" fill="black"/>
<defs>
<linearGradient id="paint0_linear_80_161" x1="10.2" y1="1.00732e-07" x2="18" y2="36" gradientUnits="userSpaceOnUse">
<stop stop-color="#3350F3"/>
<stop offset="0.552532" stop-color="#D41EB0"/>
<stop offset="1" stop-color="#F8214E"/>
</linearGradient>
<radialGradient id="paint1_radial_80_161" cx="0" cy="0" r="1" gradientUnits="userSpaceOnUse" gradientTransform="translate(7.2 32.4) rotate(-31.6075) scale(27.4758)">
<stop stop-color="#FFD43D"/>
<stop offset="1" stop-color="#F75F2B" stop-opacity="0.12"/>
</radialGradient>
</defs>
</svg>
