<svg width="120" height="120" viewBox="0 0 120 120" fill="none" xmlns="http://www.w3.org/2000/svg">
<g clip-path="url(#clip0_136_514)">
<path d="M63.4615 78.4619H90L97.5 82.5004L109.615 119.423H70.9615L62.3077 101.539L63.4615 78.4619Z" fill="#E1E1D7" stroke="black"/>
<path d="M74.3461 75.9311C74.3504 75.1227 74.691 74.3733 75.0422 73.8845C77.9577 73.4923 82.7798 73.1096 88.008 73.208C93.3663 73.3089 99.1095 73.9147 103.658 75.5091C112.613 78.6484 117.884 83.0524 119.5 84.9404V119.5H92.4783C92.5524 118.302 92.5446 116.582 92.3186 114.744C92.0561 112.61 91.4938 110.27 90.3871 108.403C89.7086 107.258 88.8231 106.096 87.8862 104.889C87.7855 104.76 87.6842 104.63 87.5824 104.499C86.7306 103.404 85.8435 102.264 85.0054 101.035C83.1329 98.2876 81.5318 95.1307 81.2114 91.1995C80.8823 87.1619 80.5497 84.6534 79.8143 82.8488C79.0587 80.9947 77.8923 79.9128 76.039 78.6725C74.7147 77.7862 74.3416 76.7901 74.3461 75.9311Z" fill="white" stroke="black"/>
<path d="M66.131 86.6887V86.8959L66.2775 87.0423C66.307 87.0718 66.407 87.1939 66.5967 87.4721C66.7783 87.7384 67.0259 88.1234 67.3474 88.6537C67.9902 89.7137 68.9221 91.3441 70.2037 93.7468C71.8585 96.8491 73.79 98.3623 75.4107 99.1782C76.2148 99.583 76.9315 99.8105 77.4674 99.975C77.499 99.9847 77.5297 99.9941 77.5595 100.003C77.789 100.073 77.9665 100.128 78.1083 100.182C78.2834 100.248 78.315 100.283 78.3041 100.271C78.4224 100.4 78.5048 100.611 78.5406 101.07C78.5633 101.362 78.565 101.693 78.5672 102.099C78.5685 102.348 78.57 102.624 78.5765 102.938C78.6099 104.551 78.7806 106.85 79.8011 110.115C81.2217 114.661 81.4686 118.034 81.417 119.5H0.5V56.7342C1.38069 55.392 3.68909 53.09 7.02878 50.5127C10.4496 47.8727 14.9022 44.9822 19.8845 42.591C29.7298 37.8659 37.6166 37.4311 42.406 37.423C43.582 38.1544 45.2858 39.3988 46.7077 40.8363C47.4427 41.5794 48.0906 42.3623 48.5522 43.1413C49.0156 43.9236 49.2726 44.6704 49.2726 45.3509C49.2726 47.4463 49.898 49.8246 50.8218 51.8772C51.7394 53.916 52.992 55.7233 54.3119 56.6031C54.4815 56.7162 54.6455 56.9409 54.7771 57.3446C54.9076 57.7448 54.9884 58.267 55.0312 58.8985C55.1039 59.9736 55.0619 61.2767 55.0165 62.6849C55.0084 62.9356 55.0003 63.1897 54.9926 63.4464C54.9425 65.1258 54.9157 66.9037 55.1089 68.4944C55.3008 70.0737 55.7181 71.5538 56.6239 72.5728C57.9953 74.1154 59.9683 75.0544 61.8322 75.6094C63.4433 76.0892 65.0139 76.2941 66.131 76.3415V86.6887Z" fill="white" stroke="black"/>
<mask id="path-4-inside-1_136_514" fill="white">
<path fill-rule="evenodd" clip-rule="evenodd" d="M25.9615 50.7695C22.4566 50.7695 19.6154 53.6108 19.6154 57.1157V63.3463C19.6154 64.0897 20.2766 64.6155 21.02 64.6155H30.903C31.6464 64.6155 32.3077 64.0897 32.3077 63.3463V57.1157C32.3077 53.6108 29.4664 50.7695 25.9615 50.7695Z"/>
</mask>
<path fill-rule="evenodd" clip-rule="evenodd" d="M25.9615 50.7695C22.4566 50.7695 19.6154 53.6108 19.6154 57.1157V63.3463C19.6154 64.0897 20.2766 64.6155 21.02 64.6155H30.903C31.6464 64.6155 32.3077 64.0897 32.3077 63.3463V57.1157C32.3077 53.6108 29.4664 50.7695 25.9615 50.7695Z" fill="white"/>
<path d="M20.6154 57.1157C20.6154 54.1631 23.0089 51.7695 25.9615 51.7695V49.7695C21.9043 49.7695 18.6154 53.0585 18.6154 57.1157H20.6154ZM20.6154 63.3463V57.1157H18.6154V63.3463H20.6154ZM21.02 65.6155H30.903V63.6155H21.02V65.6155ZM31.3077 57.1157V63.3463H33.3077V57.1157H31.3077ZM25.9615 51.7695C28.9141 51.7695 31.3077 54.1631 31.3077 57.1157H33.3077C33.3077 53.0585 30.0187 49.7695 25.9615 49.7695V51.7695ZM30.903 65.6155C32.0622 65.6155 33.3077 64.7693 33.3077 63.3463H31.3077C31.3077 63.4018 31.2888 63.4522 31.2282 63.5048C31.1594 63.5646 31.0438 63.6155 30.903 63.6155V65.6155ZM18.6154 63.3463C18.6154 64.7693 19.8608 65.6155 21.02 65.6155V63.6155C20.8792 63.6155 20.7636 63.5646 20.6948 63.5048C20.6342 63.4522 20.6154 63.4018 20.6154 63.3463H18.6154Z" fill="black" mask="url(#path-4-inside-1_136_514)"/>
<mask id="path-6-inside-2_136_514" fill="white">
<path fill-rule="evenodd" clip-rule="evenodd" d="M15.577 73.8457C12.0721 73.8457 9.23083 76.687 9.23083 80.1919V86.4225C9.23083 87.1659 9.89207 87.6917 10.6355 87.6917H20.5185C21.2619 87.6917 21.9231 87.1659 21.9231 86.4225V80.1919C21.9231 76.687 19.0819 73.8457 15.577 73.8457Z"/>
</mask>
<path fill-rule="evenodd" clip-rule="evenodd" d="M15.577 73.8457C12.0721 73.8457 9.23083 76.687 9.23083 80.1919V86.4225C9.23083 87.1659 9.89207 87.6917 10.6355 87.6917H20.5185C21.2619 87.6917 21.9231 87.1659 21.9231 86.4225V80.1919C21.9231 76.687 19.0819 73.8457 15.577 73.8457Z" fill="white"/>
<path d="M10.2308 80.1919C10.2308 77.2393 12.6244 74.8457 15.577 74.8457V72.8457C11.5198 72.8457 8.23083 76.1347 8.23083 80.1919H10.2308ZM10.2308 86.4225V80.1919H8.23083V86.4225H10.2308ZM10.6355 88.6917H20.5185V86.6917H10.6355V88.6917ZM20.9231 80.1919V86.4225H22.9231V80.1919H20.9231ZM15.577 74.8457C18.5296 74.8457 20.9231 77.2393 20.9231 80.1919H22.9231C22.9231 76.1347 19.6342 72.8457 15.577 72.8457V74.8457ZM20.5185 88.6917C21.6776 88.6917 22.9231 87.8455 22.9231 86.4225H20.9231C20.9231 86.478 20.9043 86.5284 20.8437 86.581C20.7749 86.6408 20.6593 86.6917 20.5185 86.6917V88.6917ZM8.23083 86.4225C8.23083 87.8455 9.47636 88.6917 10.6355 88.6917V86.6917C10.4947 86.6917 10.3791 86.6408 10.3103 86.581C10.2497 86.5284 10.2308 86.478 10.2308 86.4225H8.23083Z" fill="black" mask="url(#path-6-inside-2_136_514)"/>
<mask id="path-8-inside-3_136_514" fill="white">
<path fill-rule="evenodd" clip-rule="evenodd" d="M37.5001 73.8457C33.9952 73.8457 31.1539 76.687 31.1539 80.1919V86.4225C31.1539 87.1659 31.8152 87.6917 32.5586 87.6917H42.4416C43.185 87.6917 43.8462 87.1659 43.8462 86.4225V80.1919C43.8462 76.687 41.005 73.8457 37.5001 73.8457Z"/>
</mask>
<path fill-rule="evenodd" clip-rule="evenodd" d="M37.5001 73.8457C33.9952 73.8457 31.1539 76.687 31.1539 80.1919V86.4225C31.1539 87.1659 31.8152 87.6917 32.5586 87.6917H42.4416C43.185 87.6917 43.8462 87.1659 43.8462 86.4225V80.1919C43.8462 76.687 41.005 73.8457 37.5001 73.8457Z" fill="white"/>
<path d="M32.1539 80.1919C32.1539 77.2393 34.5475 74.8457 37.5001 74.8457V72.8457C33.4429 72.8457 30.1539 76.1347 30.1539 80.1919H32.1539ZM32.1539 86.4225V80.1919H30.1539V86.4225H32.1539ZM32.5586 88.6917H42.4416V86.6917H32.5586V88.6917ZM42.8462 80.1919V86.4225H44.8462V80.1919H42.8462ZM37.5001 74.8457C40.4527 74.8457 42.8462 77.2393 42.8462 80.1919H44.8462C44.8462 76.1347 41.5573 72.8457 37.5001 72.8457V74.8457ZM42.4416 88.6917C43.6007 88.6917 44.8462 87.8455 44.8462 86.4225H42.8462C42.8462 86.478 42.8274 86.5284 42.7668 86.581C42.698 86.6408 42.5824 86.6917 42.4416 86.6917V88.6917ZM30.1539 86.4225C30.1539 87.8455 31.3995 88.6917 32.5586 88.6917V86.6917C32.4178 86.6917 32.3022 86.6408 32.2334 86.581C32.1728 86.5284 32.1539 86.478 32.1539 86.4225H30.1539Z" fill="black" mask="url(#path-8-inside-3_136_514)"/>
<mask id="path-10-inside-4_136_514" fill="white">
<path fill-rule="evenodd" clip-rule="evenodd" d="M15.577 96.9229C12.0721 96.9229 9.23083 99.7641 9.23083 103.269V109.5C9.23083 110.243 9.89211 110.769 10.6356 110.769H20.5184C21.2619 110.769 21.9231 110.243 21.9231 109.5V103.269C21.9231 99.7641 19.0819 96.9229 15.577 96.9229Z"/>
</mask>
<path fill-rule="evenodd" clip-rule="evenodd" d="M15.577 96.9229C12.0721 96.9229 9.23083 99.7641 9.23083 103.269V109.5C9.23083 110.243 9.89211 110.769 10.6356 110.769H20.5184C21.2619 110.769 21.9231 110.243 21.9231 109.5V103.269C21.9231 99.7641 19.0819 96.9229 15.577 96.9229Z" fill="white"/>
<path d="M10.2308 103.269C10.2308 100.316 12.6244 97.9229 15.577 97.9229V95.9229C11.5198 95.9229 8.23083 99.2118 8.23083 103.269H10.2308ZM10.2308 109.5V103.269H8.23083V109.5H10.2308ZM10.6356 111.769H20.5184V109.769H10.6356V111.769ZM20.9231 103.269V109.5H22.9231V103.269H20.9231ZM15.577 97.9229C18.5296 97.9229 20.9231 100.316 20.9231 103.269H22.9231C22.9231 99.2118 19.6342 95.9229 15.577 95.9229V97.9229ZM20.5184 111.769C21.6776 111.769 22.9231 110.923 22.9231 109.5H20.9231C20.9231 109.555 20.9043 109.606 20.8437 109.658C20.7749 109.718 20.6592 109.769 20.5184 109.769V111.769ZM8.23083 109.5C8.23083 110.923 9.4764 111.769 10.6356 111.769V109.769C10.4948 109.769 10.3791 109.718 10.3103 109.658C10.2497 109.606 10.2308 109.555 10.2308 109.5H8.23083Z" fill="black" mask="url(#path-10-inside-4_136_514)"/>
<mask id="path-12-inside-5_136_514" fill="white">
<path fill-rule="evenodd" clip-rule="evenodd" d="M37.5001 96.9229C33.9952 96.9229 31.1539 99.7641 31.1539 103.269V109.5C31.1539 110.243 31.8152 110.769 32.5587 110.769H42.4415C43.185 110.769 43.8462 110.243 43.8462 109.5V103.269C43.8462 99.7641 41.005 96.9229 37.5001 96.9229Z"/>
</mask>
<path fill-rule="evenodd" clip-rule="evenodd" d="M37.5001 96.9229C33.9952 96.9229 31.1539 99.7641 31.1539 103.269V109.5C31.1539 110.243 31.8152 110.769 32.5587 110.769H42.4415C43.185 110.769 43.8462 110.243 43.8462 109.5V103.269C43.8462 99.7641 41.005 96.9229 37.5001 96.9229Z" fill="white"/>
<path d="M32.1539 103.269C32.1539 100.316 34.5475 97.9229 37.5001 97.9229V95.9229C33.4429 95.9229 30.1539 99.2118 30.1539 103.269H32.1539ZM32.1539 109.5V103.269H30.1539V109.5H32.1539ZM32.5587 111.769H42.4415V109.769H32.5587V111.769ZM42.8462 103.269V109.5H44.8462V103.269H42.8462ZM37.5001 97.9229C40.4527 97.9229 42.8462 100.316 42.8462 103.269H44.8462C44.8462 99.2118 41.5573 95.9229 37.5001 95.9229V97.9229ZM42.4415 111.769C43.6007 111.769 44.8462 110.923 44.8462 109.5H42.8462C42.8462 109.555 42.8274 109.606 42.7668 109.658C42.698 109.718 42.5823 109.769 42.4415 109.769V111.769ZM30.1539 109.5C30.1539 110.923 31.3995 111.769 32.5587 111.769V109.769C32.4179 109.769 32.3022 109.718 32.2334 109.658C32.1728 109.606 32.1539 109.555 32.1539 109.5H30.1539Z" fill="black" mask="url(#path-12-inside-5_136_514)"/>
<mask id="path-14-inside-6_136_514" fill="white">
<path fill-rule="evenodd" clip-rule="evenodd" d="M59.4231 96.9229C55.9182 96.9229 53.0769 99.7641 53.0769 103.269V109.5C53.0769 110.243 53.7382 110.769 54.4817 110.769H64.3645C65.1079 110.769 65.7692 110.243 65.7692 109.5V103.269C65.7692 99.7641 62.9279 96.9229 59.4231 96.9229Z"/>
</mask>
<path fill-rule="evenodd" clip-rule="evenodd" d="M59.4231 96.9229C55.9182 96.9229 53.0769 99.7641 53.0769 103.269V109.5C53.0769 110.243 53.7382 110.769 54.4817 110.769H64.3645C65.1079 110.769 65.7692 110.243 65.7692 109.5V103.269C65.7692 99.7641 62.9279 96.9229 59.4231 96.9229Z" fill="white"/>
<path d="M54.0769 103.269C54.0769 100.316 56.4705 97.9229 59.4231 97.9229V95.9229C55.3659 95.9229 52.0769 99.2118 52.0769 103.269H54.0769ZM54.0769 109.5V103.269H52.0769V109.5H54.0769ZM54.4817 111.769H64.3645V109.769H54.4817V111.769ZM64.7692 103.269V109.5H66.7692V103.269H64.7692ZM59.4231 97.9229C62.3757 97.9229 64.7692 100.316 64.7692 103.269H66.7692C66.7692 99.2118 63.4802 95.9229 59.4231 95.9229V97.9229ZM64.3645 111.769C65.5236 111.769 66.7692 110.923 66.7692 109.5H64.7692C64.7692 109.555 64.7504 109.606 64.6898 109.658C64.6209 109.718 64.5053 109.769 64.3645 109.769V111.769ZM52.0769 109.5C52.0769 110.923 53.3225 111.769 54.4817 111.769V109.769C54.3408 109.769 54.2252 109.718 54.1564 109.658C54.0958 109.606 54.0769 109.555 54.0769 109.5H52.0769Z" fill="black" mask="url(#path-14-inside-6_136_514)"/>
<path d="M119.5 23.0769C119.5 35.5458 109.392 45.6538 96.923 45.6538C84.4541 45.6538 74.3461 35.5458 74.3461 23.0769C74.3461 10.608 84.4541 0.5 96.923 0.5C109.392 0.5 119.5 10.608 119.5 23.0769Z" fill="white" stroke="black"/>
</g>
<defs>
<clipPath id="clip0_136_514">
<rect width="120" height="120" fill="white"/>
</clipPath>
</defs>
</svg>
