<svg width="120" height="120" viewBox="0 0 120 120" fill="none" xmlns="http://www.w3.org/2000/svg">
<g clip-path="url(#clip0_136_465)">
<path d="M57.3572 85.7143C57.3572 99.6397 46.0683 110.929 32.1429 110.929C18.2174 110.929 6.92859 99.6397 6.92859 85.7143C6.92859 71.7888 18.2174 60.5 32.1429 60.5C46.0683 60.5 57.3572 71.7888 57.3572 85.7143Z" fill="white" stroke="black"/>
<path d="M114.5 85.7143C114.5 99.6397 103.211 110.929 89.2857 110.929C75.3602 110.929 64.0714 99.6397 64.0714 85.7143C64.0714 71.7888 75.3602 60.5 89.2857 60.5C103.211 60.5 114.5 71.7888 114.5 85.7143Z" fill="white" stroke="black"/>
<path d="M105.929 85.7141C105.929 94.9057 98.4773 102.357 89.2857 102.357C80.0941 102.357 72.6429 94.9057 72.6429 85.7141C72.6429 76.5226 80.0941 69.0713 89.2857 69.0713C98.4773 69.0713 105.929 76.5226 105.929 85.7141Z" fill="white" stroke="black"/>
<path d="M97.3571 85.714C97.3571 90.1717 93.7434 93.7854 89.2857 93.7854C84.828 93.7854 81.2143 90.1717 81.2143 85.714C81.2143 81.2563 84.828 77.6426 89.2857 77.6426C93.7434 77.6426 97.3571 81.2563 97.3571 85.714Z" fill="#BDF0ED" stroke="black"/>
<path d="M48.7857 85.7141C48.7857 94.9057 41.3345 102.357 32.1429 102.357C22.9513 102.357 15.5 94.9057 15.5 85.7141C15.5 76.5226 22.9513 69.0713 32.1429 69.0713C41.3345 69.0713 48.7857 76.5226 48.7857 85.7141Z" fill="white" stroke="black"/>
<path d="M6.42855 85.7141H0.357117V8.57129H119.643V85.7141H114.643" stroke="black"/>
<path d="M57.8572 86.0713H63.9286" stroke="black"/>
<circle cx="32.1428" cy="85.714" r="8.07143" fill="#BDF0ED" stroke="black"/>
<path d="M15 13.5713H42.8571" stroke="black"/>
</g>
<defs>
<clipPath id="clip0_136_465">
<rect width="120" height="120" fill="white"/>
</clipPath>
</defs>
</svg>
