<svg width="36" height="36" viewBox="0 0 36 36" fill="none" xmlns="http://www.w3.org/2000/svg">
<circle cx="18" cy="18" r="18" fill="#3F8AE0"/>
<path fill-rule="evenodd" clip-rule="evenodd" d="M18.8991 22.9614C18.8991 22.9614 19.2299 22.9291 19.3994 22.7696C19.5545 22.6234 19.5492 22.3476 19.5492 22.3476C19.5492 22.3476 19.5285 21.0595 20.2109 20.8694C20.8834 20.6823 21.7469 22.115 22.6634 22.6659C23.3556 23.0824 23.881 22.9912 23.881 22.9912L26.3299 22.9614C26.3299 22.9614 27.6104 22.8922 27.0033 22.0097C26.9531 21.9374 26.6491 21.3566 25.183 20.1636C23.647 18.9149 23.8533 19.1169 25.7022 16.9565C26.8284 15.6409 27.2786 14.8378 27.1378 14.4943C27.0042 14.1658 26.1757 14.2531 26.1757 14.2531L23.4193 14.268C23.4193 14.268 23.2148 14.2436 23.0633 14.323C22.9153 14.4008 22.8194 14.5823 22.8194 14.5823C22.8194 14.5823 22.3836 15.6001 21.8016 16.4661C20.5741 18.2925 20.0836 18.3891 19.8827 18.276C19.4156 18.0111 19.5321 17.2135 19.5321 16.6468C19.5321 14.8763 19.8388 14.1383 18.9358 13.9474C18.6363 13.8837 18.4158 13.842 17.6491 13.835C16.6654 13.8263 15.8333 13.8381 15.3617 14.0401C15.0478 14.1745 14.8057 14.4747 14.9537 14.492C15.1357 14.5132 15.5482 14.5894 15.767 14.8503C16.0494 15.1875 16.0395 15.9435 16.0395 15.9435C16.0395 15.9435 16.2018 18.0276 15.6603 18.2862C15.289 18.4638 14.7797 18.1015 13.6849 16.4441C13.1244 15.5953 12.7012 14.657 12.7012 14.657C12.7012 14.657 12.6196 14.4818 12.4734 14.3874C12.2968 14.2735 12.0502 14.2381 12.0502 14.2381L9.43099 14.2531C9.43099 14.2531 9.03734 14.2625 8.89298 14.4126C8.76475 14.5454 8.88311 14.8212 8.88311 14.8212C8.88311 14.8212 10.9338 19.0265 13.2562 21.146C15.3859 23.0887 17.8033 22.9614 17.8033 22.9614H18.8991Z" fill="black"/>
</svg>
