<svg width="36" height="36" viewBox="0 0 36 36" fill="none" xmlns="http://www.w3.org/2000/svg">
<circle cx="18" cy="18" r="18" fill="#00D15D"/>
<path fill-rule="evenodd" clip-rule="evenodd" d="M18.0349 26.1904H18.0315C16.6426 26.19 15.2779 25.8432 14.0658 25.1852L9.66669 26.3337L10.844 22.0541C10.1178 20.8016 9.73564 19.3808 9.73626 17.9252C9.73808 13.3717 13.4608 9.66699 18.0348 9.66699C20.2548 9.66795 22.3383 10.528 23.9051 12.0891C25.4719 13.6501 26.3342 15.7251 26.3334 17.9318C26.3315 22.4843 22.6103 26.1886 18.0349 26.1904ZM14.27 23.6901L14.5219 23.8389C15.5809 24.4643 16.7948 24.7952 18.0325 24.7957H18.0353C21.8369 24.7957 24.931 21.7163 24.9326 17.9313C24.9333 16.0971 24.2165 14.3725 22.9143 13.075C21.6121 11.7775 19.8803 11.0626 18.038 11.062C14.2334 11.062 11.1392 14.141 11.1377 17.9257C11.1372 19.2228 11.5018 20.486 12.1923 21.5789L12.3563 21.8386L11.6595 24.3716L14.27 23.6901ZM22.2157 19.8956C22.1639 19.8095 22.0257 19.7579 21.8183 19.6546C21.611 19.5513 20.5915 19.0521 20.4014 18.9832C20.2114 18.9144 20.0731 18.88 19.9349 19.0865C19.7967 19.293 19.3993 19.7579 19.2783 19.8956C19.1574 20.0333 19.0364 20.0506 18.8292 19.9473C18.6218 19.844 17.9537 19.6261 17.1617 18.923C16.5452 18.3758 16.1291 17.7001 16.0082 17.4935C15.8872 17.2869 15.9953 17.1753 16.0991 17.0724C16.1924 16.9799 16.3064 16.8313 16.4101 16.7108C16.5138 16.5904 16.5483 16.5042 16.6174 16.3666C16.6866 16.2288 16.652 16.1083 16.6002 16.005C16.5483 15.9017 16.1336 14.886 15.9609 14.4728C15.7925 14.0704 15.6216 14.1249 15.4943 14.1186C15.3735 14.1125 15.2351 14.1113 15.0969 14.1113C14.9587 14.1113 14.734 14.1629 14.544 14.3695C14.3539 14.5761 13.8183 15.0754 13.8183 16.091C13.8183 17.1068 14.5613 18.088 14.6649 18.2257C14.7686 18.3635 16.127 20.4478 18.2071 21.3417C18.7018 21.5543 19.088 21.6813 19.3892 21.7764C19.8859 21.9335 20.3379 21.9113 20.6952 21.8581C21.0936 21.7989 21.9219 21.359 22.0948 20.8769C22.2675 20.3948 22.2675 19.9817 22.2157 19.8956Z" fill="black"/>
</svg>
